<svg width="18" height="18" viewBox="0 0 18 18" fill="none" xmlns="http://www.w3.org/2000/svg">
<path d="M17.9703 5.62255C17.7075 2.73062 15.6606 0.632457 13.0989 0.632457C11.3923 0.632457 9.82965 1.55086 8.95036 3.02279C8.07904 1.53182 6.58046 0.632111 4.90117 0.632111C2.33983 0.632111 0.292557 2.73027 0.0301573 5.62221C0.00938682 5.74994 -0.0757719 6.42221 0.183166 7.51855C0.556341 9.09987 1.41831 10.5382 2.67527 11.6771L8.94621 17.3679L15.3248 11.6775C16.5818 10.5382 17.4437 9.10021 17.8169 7.51855C18.0759 6.42256 17.9907 5.75029 17.9703 5.62255ZM17.1429 7.36C16.8023 8.80424 16.0127 10.12 14.8616 11.1627L8.95036 16.4367L3.14053 11.1641C1.98742 10.1193 1.19815 8.80389 0.857166 7.35965C0.612075 6.32217 0.712812 5.7361 0.713158 5.73229L0.718351 5.69733C0.943364 3.16368 2.70227 1.32446 4.90117 1.32446C6.52368 1.32446 7.952 2.32144 8.62981 3.92595L8.94863 4.68165L9.26746 3.92595C9.93454 2.34602 11.4383 1.3248 13.0993 1.3248C15.2978 1.3248 17.0571 3.16403 17.2866 5.73056C17.2873 5.7361 17.388 6.32252 17.1429 7.36Z" fill="white"/>
</svg>
