<svg width="20" height="20" viewBox="0 0 20 20" fill="none" xmlns="http://www.w3.org/2000/svg">
<path d="M10.9192 1.31204C10.544 1.09983 10.1 1.10675 9.73129 1.32895C9.7136 1.33933 9.69669 1.35163 9.68131 1.3647L4.47238 5.77134H0.384423C0.171837 5.77134 0 5.94318 0 6.15577V13.4598C0 13.5621 0.0403644 13.6597 0.112636 13.7316C0.184908 13.8035 0.282167 13.8442 0.384423 13.8442L4.46315 13.8423L9.6694 18.6245C9.68862 18.6422 9.70938 18.6576 9.73129 18.6707C9.92042 18.7848 10.1299 18.8421 10.3394 18.8421C10.5382 18.8417 10.7366 18.7906 10.9192 18.6876C11.3032 18.4708 11.5327 18.0748 11.5327 17.6285V2.37151C11.5327 1.92519 11.3032 1.52924 10.9192 1.31204ZM10.7638 17.6285C10.7638 17.7942 10.6804 17.9399 10.5413 18.0187C10.4817 18.0521 10.3306 18.1167 10.1568 18.0287L4.9975 13.2891V11.5377C4.9975 11.3251 4.82566 11.1533 4.61308 11.1533C4.40049 11.1533 4.22866 11.3251 4.22866 11.5377V13.0738L0.768846 13.0754V6.54019H4.22866V8.07788C4.22866 8.29047 4.40049 8.46231 4.61308 8.46231C4.82566 8.46231 4.9975 8.29047 4.9975 8.07788V6.33414L10.1507 1.97478C10.3279 1.88175 10.4813 1.94787 10.5413 1.9817C10.6804 2.06051 10.7638 2.2062 10.7638 2.37151V17.6285Z" fill="#2723CB"/>
<path d="M14.9145 2.71633C14.7134 2.64829 14.4951 2.75593 14.4267 2.95698C14.3586 3.15765 14.4663 3.37639 14.6673 3.44482C17.3971 4.37166 19.2312 6.92884 19.2312 9.80817C19.2312 12.6848 17.4006 15.2424 14.6761 16.1719C14.4755 16.2403 14.3678 16.4587 14.4367 16.6601C14.4912 16.8197 14.6404 16.9204 14.8003 16.9204C14.8414 16.9204 14.8834 16.9139 14.9245 16.8996C17.9599 15.8644 19.9996 13.0146 19.9996 9.80856C20 6.59901 17.9564 3.74928 14.9145 2.71633Z" fill="#2723CB"/>
<path d="M16.5402 9.80779C16.5402 7.51201 14.9991 5.46304 12.7925 4.82489C12.5876 4.76685 12.3758 4.88333 12.3166 5.08784C12.2578 5.29158 12.375 5.50494 12.5795 5.56376C14.459 6.10695 15.7718 7.85223 15.7718 9.80779C15.7718 11.7633 14.459 13.5086 12.5795 14.0518C12.3754 14.1106 12.2578 14.324 12.3166 14.5277C12.3654 14.6961 12.5188 14.8057 12.686 14.8057C12.7214 14.8057 12.7571 14.8007 12.7925 14.7907C14.9995 14.1525 16.5402 12.1036 16.5402 9.80779Z" fill="#2723CB"/>
</svg>
