<svg id="logo"   width="49" height="13" viewBox="0 0 49 13" fill="none" xmlns="http://www.w3.org/2000/svg">
  <path d="M5.44531 12L2.13281 2.46094H2.07031C2.15885 3.8776 2.20312 5.20573 2.20312 6.44531V12H0.507812V0.578125H3.14062L6.3125 9.66406H6.35938L9.625 0.578125H12.2656V12H10.4688V6.35156C10.4688 5.78385 10.4818 5.04427 10.5078 4.13281C10.5391 3.22135 10.5651 2.66927 10.5859 2.47656H10.5234L7.09375 12H5.44531ZM24.2266 0.578125V7.96875C24.2266 8.8125 24.0443 9.55208 23.6797 10.1875C23.3203 10.8177 22.7969 11.3047 22.1094 11.6484C21.4271 11.987 20.6094 12.1562 19.6562 12.1562C18.2396 12.1562 17.138 11.7812 16.3516 11.0312C15.5651 10.2812 15.1719 9.25 15.1719 7.9375V0.578125H17.0469V7.80469C17.0469 8.7474 17.2656 9.44271 17.7031 9.89062C18.1406 10.3385 18.8125 10.5625 19.7188 10.5625C21.4792 10.5625 22.3594 9.63802 22.3594 7.78906V0.578125H24.2266ZM33.7344 8.89844C33.7344 9.91406 33.3672 10.7109 32.6328 11.2891C31.8984 11.8672 30.8854 12.1562 29.5938 12.1562C28.3021 12.1562 27.2448 11.9557 26.4219 11.5547V9.78906C26.9427 10.0339 27.4948 10.2266 28.0781 10.3672C28.6667 10.5078 29.2135 10.5781 29.7188 10.5781C30.4583 10.5781 31.0026 10.4375 31.3516 10.1562C31.7057 9.875 31.8828 9.4974 31.8828 9.02344C31.8828 8.59635 31.7214 8.23438 31.3984 7.9375C31.0755 7.64062 30.4089 7.28906 29.3984 6.88281C28.3568 6.46094 27.6224 5.97917 27.1953 5.4375C26.7682 4.89583 26.5547 4.24479 26.5547 3.48438C26.5547 2.53125 26.8932 1.78125 27.5703 1.23438C28.2474 0.6875 29.1562 0.414062 30.2969 0.414062C31.3906 0.414062 32.4792 0.653646 33.5625 1.13281L32.9688 2.65625C31.9531 2.22917 31.0469 2.01562 30.25 2.01562C29.6458 2.01562 29.1875 2.14844 28.875 2.41406C28.5625 2.67448 28.4062 3.02083 28.4062 3.45312C28.4062 3.75 28.4688 4.00521 28.5938 4.21875C28.7188 4.42708 28.9245 4.625 29.2109 4.8125C29.4974 5 30.013 5.2474 30.7578 5.55469C31.5964 5.90365 32.2109 6.22917 32.6016 6.53125C32.9922 6.83333 33.2786 7.17448 33.4609 7.55469C33.6432 7.9349 33.7344 8.38281 33.7344 8.89844ZM35.9453 12V0.578125H37.8125V12H35.9453ZM45.6953 2.01562C44.6224 2.01562 43.7786 2.39583 43.1641 3.15625C42.5495 3.91667 42.2422 4.96615 42.2422 6.30469C42.2422 7.70573 42.5365 8.76562 43.125 9.48438C43.7188 10.2031 44.5755 10.5625 45.6953 10.5625C46.1797 10.5625 46.6484 10.5156 47.1016 10.4219C47.5547 10.3229 48.026 10.1979 48.5156 10.0469V11.6484C47.6198 11.987 46.6042 12.1562 45.4688 12.1562C43.7969 12.1562 42.513 11.651 41.6172 10.6406C40.7214 9.625 40.2734 8.17448 40.2734 6.28906C40.2734 5.10156 40.4896 4.0625 40.9219 3.17188C41.3594 2.28125 41.9896 1.59896 42.8125 1.125C43.6354 0.651042 44.6016 0.414062 45.7109 0.414062C46.8776 0.414062 47.9557 0.658854 48.9453 1.14844L48.2734 2.70312C47.888 2.52083 47.4792 2.36198 47.0469 2.22656C46.6198 2.08594 46.1693 2.01562 45.6953 2.01562Z" fill="#333333"/>
</svg>
