<svg width="27" height="25" viewBox="0 0 27 25" fill="transparent" xmlns="http://www.w3.org/2000/svg">
<path d="M2.68031 11.0646C2.63405 11.2523 2.74869 11.4419 2.93637 11.4882C3.12406 11.5344 3.31371 11.4198 3.35997 11.2321L2.68031 11.0646ZM6.02026 7.1486L6.17679 7.46165L6.02026 7.1486ZM13.0203 6.14865V5.79865C13.0153 5.79865 13.0103 5.79875 13.0054 5.79896L13.0203 6.14865ZM3.02014 11.1483C3.35997 11.2321 3.35994 11.2322 3.35992 11.2323C3.35992 11.2323 3.3599 11.2324 3.35989 11.2324C3.35988 11.2325 3.35987 11.2325 3.35988 11.2325C3.35989 11.2324 3.35994 11.2322 3.36004 11.2318C3.36024 11.2311 3.3606 11.2296 3.36114 11.2275C3.36223 11.2233 3.36401 11.2165 3.36652 11.2072C3.37153 11.1886 3.37945 11.1601 3.39047 11.1228C3.41253 11.0482 3.44698 10.9385 3.49549 10.8025C3.59266 10.5302 3.74541 10.1549 3.96661 9.74564C4.41185 8.92188 5.11783 7.99112 6.17679 7.46165L5.86374 6.83555C4.62537 7.45473 3.83129 8.52383 3.3508 9.41279C3.10914 9.8599 2.9426 10.2691 2.83621 10.5673C2.78293 10.7166 2.74453 10.8386 2.71918 10.9244C2.7065 10.9673 2.69707 11.0012 2.69067 11.0249C2.68747 11.0368 2.68503 11.0461 2.68331 11.0527C2.68245 11.0561 2.68178 11.0587 2.68128 11.0607C2.68103 11.0617 2.68082 11.0625 2.68066 11.0632C2.68058 11.0635 2.68051 11.0638 2.68046 11.064C2.68043 11.0641 2.68039 11.0643 2.68038 11.0643C2.68034 11.0645 2.68031 11.0646 3.02014 11.1483ZM6.17679 7.46165C7.04571 7.0272 8.10964 6.80978 9.29447 6.69055C10.4815 6.5711 11.7482 6.5531 13.0351 6.49833L13.0054 5.79896C11.7463 5.85254 10.4383 5.87192 9.22439 5.99407C8.00831 6.11644 6.84521 6.34482 5.86374 6.83555L6.17679 7.46165ZM13.0203 6.49865C15.2703 6.49865 16.5202 6.49864 17.2077 6.49863C17.5514 6.49863 17.7546 6.49863 17.8717 6.49862C17.9303 6.49862 17.9674 6.49862 17.9899 6.49862C18.0011 6.49862 18.0087 6.49862 18.0134 6.49862C18.0158 6.49862 18.0175 6.49862 18.0186 6.49862C18.0191 6.49862 18.0195 6.49862 18.0198 6.49862C18.0199 6.49862 18.02 6.49862 18.0201 6.49862C18.0201 6.49862 18.0201 6.49862 18.0201 6.49862C18.0201 6.49862 18.0202 6.49862 18.0202 6.49862C18.0202 6.49862 18.0202 6.49862 18.0201 6.14862C18.0201 5.79862 18.0201 5.79862 18.0201 5.79862C18.0201 5.79862 18.0201 5.79862 18.0201 5.79862C18.0201 5.79862 18.0201 5.79862 18.02 5.79862C18.02 5.79862 18.0199 5.79862 18.0197 5.79862C18.0195 5.79862 18.0191 5.79862 18.0186 5.79862C18.0175 5.79862 18.0158 5.79862 18.0134 5.79862C18.0087 5.79862 18.0011 5.79862 17.9899 5.79862C17.9674 5.79862 17.9303 5.79862 17.8717 5.79862C17.7545 5.79863 17.5514 5.79863 17.2077 5.79863C16.5202 5.79864 15.2703 5.79865 13.0203 5.79865V6.49865Z" fill="#2723CB"/>
<path d="M17.9931 3.98205C17.9931 3.48168 18.5348 3.16895 18.9681 3.41913L22.7181 5.5842C23.1514 5.83438 23.1514 6.45985 22.7181 6.71003L18.9681 8.8751C18.5348 9.12528 17.9931 8.81255 17.9931 8.31218L17.9931 3.98205Z" fill="transparent" stroke="#2723CB" stroke-width="0.7"/>
<path  d="M23.3801 13.3783C23.4264 13.1906 23.3117 13.001 23.1241 12.9547C22.9364 12.9084 22.7467 13.0231 22.7005 13.2108L23.3801 13.3783ZM20.0402 17.2943L19.8836 16.9812L20.0402 17.2943ZM13.0402 18.2942L13.0402 18.6442C13.0451 18.6442 13.0501 18.6441 13.055 18.6439L13.0402 18.2942ZM23.0403 13.2945C22.7005 13.2108 22.7005 13.2107 22.7005 13.2106C22.7005 13.2106 22.7005 13.2105 22.7005 13.2104C22.7005 13.2104 22.7006 13.2104 22.7005 13.2104C22.7005 13.2104 22.7005 13.2107 22.7004 13.211C22.7002 13.2118 22.6998 13.2133 22.6993 13.2154C22.6982 13.2196 22.6964 13.2264 22.6939 13.2357C22.6889 13.2543 22.681 13.2828 22.67 13.3201C22.6479 13.3947 22.6134 13.5044 22.5649 13.6403C22.4678 13.9127 22.315 14.288 22.0938 14.6972C21.6486 15.521 20.9426 16.4518 19.8836 16.9812L20.1967 17.6073C21.4351 16.9881 22.2291 15.919 22.7096 15.0301C22.9513 14.583 23.1178 14.1737 23.2242 13.8756C23.2775 13.7263 23.3159 13.6042 23.3412 13.5185C23.3539 13.4756 23.3634 13.4417 23.3698 13.418C23.373 13.4061 23.3754 13.3968 23.3771 13.3901C23.378 13.3868 23.3786 13.3841 23.3791 13.3822C23.3794 13.3812 23.3796 13.3803 23.3798 13.3797C23.3798 13.3794 23.3799 13.3791 23.38 13.3789C23.38 13.3788 23.38 13.3786 23.38 13.3786C23.3801 13.3784 23.3801 13.3783 23.0403 13.2945ZM19.8836 16.9812C19.0147 17.4157 17.9508 17.6331 16.766 17.7523C15.5789 17.8718 14.3122 17.8898 13.0253 17.9445L13.055 18.6439C14.3141 18.5903 15.6222 18.5709 16.836 18.4488C18.0521 18.3264 19.2152 18.098 20.1967 17.6073L19.8836 16.9812ZM13.0402 17.9442C10.7902 17.9442 9.53514 17.9443 8.84261 17.9444C8.49635 17.9444 8.29071 17.9445 8.17162 17.9445C8.11208 17.9445 8.07417 17.9445 8.05115 17.9445C8.03963 17.9445 8.03184 17.9445 8.02692 17.9445C8.02446 17.9445 8.02272 17.9445 8.02159 17.9445C8.02103 17.9445 8.02061 17.9445 8.02034 17.9445C8.02021 17.9445 8.02011 17.9445 8.02004 17.9445C8.02001 17.9445 8.01998 17.9445 8.01996 17.9445C8.01995 17.9445 8.01995 17.9445 8.01994 17.9445C8.01994 17.9445 8.01994 17.9445 8.02014 18.2945C8.02035 18.6445 8.02035 18.6445 8.02035 18.6445C8.02036 18.6445 8.02036 18.6445 8.02037 18.6445C8.02038 18.6445 8.02041 18.6445 8.02044 18.6445C8.0205 18.6445 8.0206 18.6445 8.02073 18.6445C8.02099 18.6445 8.02139 18.6445 8.02195 18.6445C8.02306 18.6445 8.02479 18.6445 8.02724 18.6445C8.03213 18.6445 8.03991 18.6445 8.0514 18.6445C8.07439 18.6445 8.11227 18.6445 8.17179 18.6445C8.29084 18.6445 8.49645 18.6444 8.84269 18.6444C9.53518 18.6443 10.7902 18.6442 13.0402 18.6442L13.0402 17.9442Z"  fill="#2723CB"/>
<path d="M8.06722 20.4608C8.06722 20.9612 7.52555 21.2739 7.09222 21.0237L3.34222 18.8587C2.90888 18.6085 2.90888 17.983 3.34222 17.7328L7.09222 15.5678C7.52555 15.3176 8.06722 15.6303 8.06722 16.1307L8.06722 20.4608Z" fill="transparent" stroke="#2723CB" stroke-width="0.7"/>
</svg>
